<?xml version="1.0" encoding="UTF-8" standalone="no"?>
<svg
   xmlns:ns0="http://www.iki.fi/pav/software/textext/"
   xmlns:dc="http://purl.org/dc/elements/1.1/"
   xmlns:cc="http://creativecommons.org/ns#"
   xmlns:rdf="http://www.w3.org/1999/02/22-rdf-syntax-ns#"
   xmlns:svg="http://www.w3.org/2000/svg"
   xmlns="http://www.w3.org/2000/svg"
   xmlns:xlink="http://www.w3.org/1999/xlink"
   xmlns:sodipodi="http://sodipodi.sourceforge.net/DTD/sodipodi-0.dtd"
   xmlns:inkscape="http://www.inkscape.org/namespaces/inkscape"
   sodipodi:docname="flowchart.dia"
   inkscape:version="0.48.4 r9939"
   version="1.1"
   id="svg2985"
   viewBox="138 58 923 363"
   height="19cm"
   width="47cm">
  <sodipodi:namedview
     pagecolor="#ffffff"
     bordercolor="#666666"
     borderopacity="1"
     objecttolerance="10"
     gridtolerance="10"
     guidetolerance="10"
     inkscape:pageopacity="0"
     inkscape:pageshadow="2"
     inkscape:window-width="1366"
     inkscape:window-height="748"
     id="namedview3169"
     showgrid="false"
     inkscape:zoom="0.35355339"
     inkscape:cx="604.79762"
     inkscape:cy="473.55738"
     inkscape:window-x="-2"
     inkscape:window-y="-3"
     inkscape:window-maximized="1"
     inkscape:current-layer="svg2985">
    <inkscape:grid
       id="grid5151"
       type="xygrid" />
  </sodipodi:namedview>
  <metadata
     id="metadata3173">
    <rdf:RDF>
      <cc:Work
         rdf:about="">
        <dc:format>image/svg+xml</dc:format>
        <dc:type
           rdf:resource="http://purl.org/dc/dcmitype/StillImage" />
        <dc:title></dc:title>
      </cc:Work>
    </rdf:RDF>
  </metadata>
  <defs
     id="defs3171" />
  <g
     id="g2987">
    <rect
       id="rect2989"
       height="60"
       width="160"
       y="140"
       x="140"
       style="fill: #8dcf81" />
    <rect
       id="rect2991"
       height="60"
       width="160"
       y="140"
       x="140"
       style="fill: none; fill-opacity:0; stroke-width: 2; stroke: #000000" />
    <text
       id="text2993"
       y="165.89999"
       x="220"
       style="font-size:12.80000019px;font-style:normal;font-weight:normal;text-anchor:middle;fill:#000000;font-family:sans-serif"
       font-size="12.8">
      <tspan
         id="tspan2997"
         y="181.89999"
         x="220" />
    </text>
    <text
       id="text5147"
       y="165.89999"
       x="220"
       style="font-size:12.80000019px;font-style:normal;font-weight:normal;text-anchor:middle;fill:#000000;font-family:sans-serif"
       font-size="12.8">
      <tspan
         id="tspan5149"
         y="181.89999"
         x="220">Length Distribution</tspan>
    </text>
  </g>
  <g
     id="g2999">
    <rect
       id="rect3001"
       height="60"
       width="160"
       y="300"
       x="140"
       style="fill: #8dcf81" />
    <rect
       id="rect3003"
       height="60"
       width="160"
       y="300"
       x="140"
       style="fill: none; fill-opacity:0; stroke-width: 2; stroke: #000000" />
    <text
       id="text3005"
       y="342.92838"
       x="220"
       style="font-size:12.80000019px;font-style:normal;font-weight:normal;text-anchor:middle;fill:#000000;font-family:sans-serif"
       font-size="12.8">
      <tspan
         id="tspan3007"
         y="342.92838"
         x="220">Angle Distribution</tspan>
    </text>
  </g>
  <g
     id="g3011">
    <rect
       id="rect3013"
       height="40"
       width="80"
       y="140"
       x="360"
       style="fill: #cadef0" />
    <rect
       id="rect3015"
       height="40"
       width="80"
       y="140"
       x="360"
       style="fill: none; fill-opacity:0; stroke-width: 2; stroke: #000000" />
    <text
       id="text3017"
       y="163.9"
       x="400"
       style="fill: #000000;text-anchor:middle;font-family:sans-serif;font-style:normal;font-weight:normal"
       font-size="12.8">
      <tspan
         id="tspan3019"
         y="163.9"
         x="400">Sun</tspan>
    </text>
  </g>
  <g
     id="g3021">
    <rect
       id="rect3023"
       height="40"
       width="120"
       y="380"
       x="340"
       style="fill: #cadef0" />
    <rect
       id="rect3025"
       height="40"
       width="120"
       y="380"
       x="340"
       style="fill: none; fill-opacity:0; stroke-width: 2; stroke: #000000" />
    <text
       id="text3027"
       y="403.9"
       x="400"
       style="fill: #000000;text-anchor:middle;font-family:sans-serif;font-style:normal;font-weight:normal"
       font-size="12.8">
      <tspan
         id="tspan3029"
         y="403.9"
         x="400">Water current</tspan>
    </text>
  </g>
  <g
     id="g3031">
    <rect
       id="rect3033"
       height="60"
       width="80"
       y="220"
       x="360"
       style="fill: #fcfed4" />
    <rect
       id="rect3035"
       height="60"
       width="80"
       y="220"
       x="360"
       style="fill: none; fill-opacity:0; stroke-width: 2; stroke: #000000" />
    <text
       id="text3037"
       y="245.89999"
       x="400"
       style="font-size:12.80000019px;font-style:normal;font-weight:normal;text-anchor:middle;fill:#000000;font-family:sans-serif"
       font-size="12.8">
      <tspan
         id="tspan3041"
         y="261.89999"
         x="400">Shading</tspan>
    </text>
  </g>
  <g
     id="g3043">
    <rect
       id="rect3045"
       height="60"
       width="160"
       y="220"
       x="460"
       style="fill: #fcfed4" />
    <rect
       id="rect3047"
       height="60"
       width="160"
       y="220"
       x="460"
       style="fill: none; fill-opacity:0; stroke-width: 2; stroke: #000000" />
    <text
       id="text3049"
       y="245.89999"
       x="540"
       style="font-size:12.80000019px;font-style:normal;font-weight:normal;text-anchor:middle;fill:#000000;font-family:sans-serif"
       font-size="12.8">
      <tspan
         id="tspan3053"
         y="261.89999"
         x="540">Light Availability</tspan>
    </text>
  </g>
  <g
     id="g3055">
    <rect
       id="rect3057"
       height="60"
       width="240"
       y="220"
       x="640"
       style="fill: #fcfed4" />
    <rect
       id="rect3059"
       height="60"
       width="240"
       y="220"
       x="640"
       style="fill: none; fill-opacity:0; stroke-width: 2; stroke: #000000" />
    <text
       id="text3061"
       y="245.89999"
       x="760"
       style="font-size:12.80000019px;font-style:normal;font-weight:normal;text-anchor:middle;fill:#000000;font-family:sans-serif"
       font-size="12.8">
      <tspan
         id="tspan3065"
         y="261.89999"
         x="760">Light absorption by fronds</tspan>
    </text>
  </g>
  <g
     id="g3067">
    <rect
       id="rect3069"
       height="60"
       width="160"
       y="220"
       x="900"
       style="fill: #fcfed4" />
    <rect
       id="rect3071"
       height="60"
       width="160"
       y="220"
       x="900"
       style="fill: none; fill-opacity:0; stroke-width: 2; stroke: #000000" />
    <text
       id="text3073"
       y="245.89999"
       x="980"
       style="font-size:12.80000019px;font-style:normal;font-weight:normal;text-anchor:middle;fill:#000000;font-family:sans-serif"
       font-size="12.8">
      <tspan
         id="tspan3077"
         y="261.89999"
         x="980">Frond Growth</tspan>
    </text>
  </g>
  <g
     id="g3079">
    <polyline
       id="polyline3081"
       points="220,200 220,235 350.264,235 "
       style="fill: none; fill-opacity:0; stroke-width: 2; stroke: #000000" />
    <polygon
       id="polygon3083"
       points="357.764,235 347.764,240 350.264,235 347.764,230 "
       style="fill: #000000" />
    <polygon
       id="polygon3085"
       points="357.764,235 347.764,240 350.264,235 347.764,230 "
       style="fill: none; fill-opacity:0; stroke-width: 2; stroke: #000000" />
  </g>
  <g
     id="g3087">
    <polyline
       id="polyline3089"
       points="400,280 400,320 500,320 500,289.736 "
       style="fill: none; fill-opacity:0; stroke-width: 2; stroke: #000000" />
    <polygon
       id="polygon3091"
       points="500,282.236 505,292.236 500,289.736 495,292.236 "
       style="fill: #000000" />
    <polygon
       id="polygon3093"
       points="500,282.236 505,292.236 500,289.736 495,292.236 "
       style="fill: none; fill-opacity:0; stroke-width: 2; stroke: #000000" />
  </g>
  <g
     id="g3095">
    <polyline
       id="polyline3097"
       points="580,280 580,320 700,320 700,289.736 "
       style="fill: none; fill-opacity:0; stroke-width: 2; stroke: #000000" />
    <polygon
       id="polygon3099"
       points="700,282.236 705,292.236 700,289.736 695,292.236 "
       style="fill: #000000" />
    <polygon
       id="polygon3101"
       points="700,282.236 705,292.236 700,289.736 695,292.236 "
       style="fill: none; fill-opacity:0; stroke-width: 2; stroke: #000000" />
  </g>
  <g
     id="g3103">
    <polyline
       id="polyline3105"
       points="820,280 820,320 980,320 980,289.736 "
       style="fill: none; fill-opacity:0; stroke-width: 2; stroke: #000000" />
    <polygon
       id="polygon3107"
       points="980,282.236 985,292.236 980,289.736 975,292.236 "
       style="fill: #000000" />
    <polygon
       id="polygon3109"
       points="980,282.236 985,292.236 980,289.736 975,292.236 "
       style="fill: none; fill-opacity:0; stroke-width: 2; stroke: #000000" />
  </g>
  <g
     id="g3111">
    <polyline
       id="polyline3113"
       points="340,400 220,400 220,369.736 "
       style="fill: none; fill-opacity:0; stroke-width: 2; stroke: #000000" />
    <polygon
       id="polygon3115"
       points="220,362.236 225,372.236 220,369.736 215,372.236 "
       style="fill: #000000" />
    <polygon
       id="polygon3117"
       points="220,362.236 225,372.236 220,369.736 215,372.236 "
       style="fill: none; fill-opacity:0; stroke-width: 2; stroke: #000000" />
  </g>
  <g
     id="g3119">
    <line
       id="line3121"
       y2="210.264"
       x2="400"
       y1="180"
       x1="400"
       style="fill: none; fill-opacity:0; stroke-width: 2; stroke: #000000" />
    <polygon
       id="polygon3123"
       points="400,217.764 395,207.764 400,210.264 405,207.764 "
       style="fill: #000000" />
    <polygon
       id="polygon3125"
       points="400,217.764 395,207.764 400,210.264 405,207.764 "
       style="fill: none; fill-opacity:0; stroke-width: 2; stroke: #000000" />
  </g>
  <g
     id="g3127">
    <polyline
       id="polyline3129"
       points="220,300 220,265 350.264,265 "
       style="fill: none; fill-opacity:0; stroke-width: 2; stroke: #000000" />
    <polygon
       id="polygon3131"
       points="357.764,265 347.764,270 350.264,265 347.764,260 "
       style="fill: #000000" />
    <polygon
       id="polygon3133"
       points="357.764,265 347.764,270 350.264,265 347.764,260 "
       style="fill: none; fill-opacity:0; stroke-width: 2; stroke: #000000" />
  </g>
  <g
     id="g3135">
    <polyline
       id="polyline3137"
       points="260,140 260,100 940,100 940,210.264 "
       style="fill: none; fill-opacity:0; stroke-width: 2; stroke: #000000" />
    <polygon
       id="polygon3139"
       points="940,217.764 935,207.764 940,210.264 945,207.764 "
       style="fill: #000000" />
    <polygon
       id="polygon3141"
       points="940,217.764 935,207.764 940,210.264 945,207.764 "
       style="fill: none; fill-opacity:0; stroke-width: 2; stroke: #000000" />
  </g>
  <g
     id="g3143">
    <polyline
       id="polyline3145"
       points="1020,220 1020,60 180,60 180,130.264 "
       style="fill: none; fill-opacity:0; stroke-width: 2; stroke: #000000" />
    <polygon
       id="polygon3147"
       points="180,137.764 175,127.764 180,130.264 185,127.764 "
       style="fill: #000000" />
    <polygon
       id="polygon3149"
       points="180,137.764 175,127.764 180,130.264 185,127.764 "
       style="fill: none; fill-opacity:0; stroke-width: 2; stroke: #000000" />
  </g>
  <g
     id="g3151">
    <rect
       id="rect3153"
       height="38"
       width="120"
       y="140"
       x="480"
       style="fill: #cadef0" />
    <rect
       id="rect3155"
       height="38"
       width="120"
       y="140"
       x="480"
       style="fill: none; fill-opacity:0; stroke-width: 2; stroke: #000000" />
    <text
       id="text3157"
       y="162.9"
       x="540"
       style="fill: #000000;text-anchor:middle;font-family:sans-serif;font-style:normal;font-weight:normal"
       font-size="12.8">
      <tspan
         id="tspan3159"
         y="162.9"
         x="540">Attenuation</tspan>
    </text>
  </g>
  <g
     id="g3161">
    <line
       id="line3163"
       y2="210.264"
       x2="540"
       y1="178"
       x1="540"
       style="fill: none; fill-opacity:0; stroke-width: 2; stroke: #000000" />
    <polygon
       id="polygon3165"
       points="540,217.764 535,207.764 540,210.264 545,207.764 "
       style="fill: #000000" />
    <polygon
       id="polygon3167"
       points="540,217.764 535,207.764 540,210.264 545,207.764 "
       style="fill: none; fill-opacity:0; stroke-width: 2; stroke: #000000" />
  </g>
  <g
     transform="matrix(2,0,0,2,-238.42068,-108.11094)"
     ns0:text="$P_L$"
     ns0:preamble=""
     id="g5011">
    <defs
       id="defs5013">
      <g
         id="g5015">
        <symbol
           style="overflow:visible"
           overflow="visible"
           id="textext-3970d7fd-0">
          <path
             inkscape:connector-curvature="0"
             style="stroke:none"
             d=""
             id="path5018" />
        </symbol>
        <symbol
           style="overflow:visible"
           overflow="visible"
           id="textext-3970d7fd-1">
          <path
             inkscape:connector-curvature="0"
             style="stroke:none"
             d="m 3.015625,-3.15625 1.703125,0 c 1.40625,0 2.796875,-1.03125 2.796875,-2.140625 0,-0.78125 -0.65625,-1.515625 -1.96875,-1.515625 l -3.21875,0 c -0.1875,0 -0.296875,0 -0.296875,0.1875 0,0.125 0.078125,0.125 0.28125,0.125 0.125,0 0.3125,0.015625 0.421875,0.015625 0.171875,0.03125 0.21875,0.046875 0.21875,0.171875 0,0.03125 0,0.0625 -0.03125,0.1875 l -1.34375,5.34375 c -0.09375,0.390625 -0.109375,0.46875 -0.90625,0.46875 -0.15625,0 -0.265625,0 -0.265625,0.1875 C 0.40625,0 0.515625,0 0.546875,0 0.828125,0 1.53125,-0.03125 1.8125,-0.03125 c 0.21875,0 0.4375,0.015625 0.640625,0.015625 0.21875,0 0.4375,0.015625 0.640625,0.015625 0.078125,0 0.203125,0 0.203125,-0.203125 0,-0.109375 -0.09375,-0.109375 -0.28125,-0.109375 -0.359375,0 -0.640625,0 -0.640625,-0.171875 0,-0.0625 0.015625,-0.109375 0.03125,-0.171875 z M 3.734375,-6.125 C 3.828125,-6.46875 3.84375,-6.5 4.28125,-6.5 l 0.953125,0 c 0.828125,0 1.359375,0.265625 1.359375,0.953125 0,0.390625 -0.203125,1.25 -0.59375,1.609375 -0.5,0.453125 -1.09375,0.53125 -1.53125,0.53125 l -1.40625,0 z m 0,0"
             id="path5021" />
        </symbol>
        <symbol
           style="overflow:visible"
           overflow="visible"
           id="textext-3970d7fd-2">
          <path
             inkscape:connector-curvature="0"
             style="stroke:none"
             d=""
             id="path5024" />
        </symbol>
        <symbol
           style="overflow:visible"
           overflow="visible"
           id="textext-3970d7fd-3">
          <path
             inkscape:connector-curvature="0"
             style="stroke:none"
             d="m 2.875,-4.1875 c 0.0625,-0.25 0.078125,-0.328125 0.71875,-0.328125 0.21875,0 0.28125,0 0.28125,-0.140625 0,-0.015625 0,-0.109375 -0.109375,-0.109375 -0.15625,0 -0.34375,0.015625 -0.515625,0.03125 -0.171875,0 -0.390625,0 -0.5625,0 -0.140625,0 -0.328125,0 -0.484375,0 -0.140625,0 -0.3125,-0.03125 -0.453125,-0.03125 -0.03125,0 -0.140625,0 -0.140625,0.15625 0,0.09375 0.078125,0.09375 0.21875,0.09375 0.015625,0 0.140625,0 0.265625,0.015625 0.15625,0.015625 0.171875,0.03125 0.171875,0.109375 0,0 0,0.046875 -0.03125,0.140625 l -0.9375,3.703125 C 1.234375,-0.3125 1.21875,-0.25 0.6875,-0.25 c -0.109375,0 -0.203125,0 -0.203125,0.140625 C 0.484375,0 0.5625,0 0.6875,0 l 3.5,0 c 0.1875,0 0.1875,0 0.25,-0.140625 0.0625,-0.1875 0.59375,-1.53125 0.59375,-1.59375 0,-0.015625 -0.015625,-0.09375 -0.125,-0.09375 -0.078125,0 -0.09375,0.03125 -0.140625,0.140625 C 4.5,-1.03125 4.1875,-0.25 2.921875,-0.25 l -0.796875,0 c -0.203125,0 -0.21875,-0.015625 -0.21875,-0.078125 0,0 0,-0.03125 0.03125,-0.140625 z m 0,0"
             id="path5027" />
        </symbol>
      </g>
    </defs>
    <g
       id="textext-3970d7fd-4">
      <g
         style="fill:#000000;fill-opacity:1"
         id="g5030">
        <use
           height="363"
           width="923"
           xlink:href="#textext-3970d7fd-1"
           x="223.43201"
           y="134.765"
           id="use5032" />
      </g>
      <g
         style="fill:#000000;fill-opacity:1"
         id="g5034">
        <use
           height="363"
           width="923"
           xlink:href="#textext-3970d7fd-3"
           x="229.828"
           y="136.259"
           id="use5036" />
      </g>
    </g>
  </g>
  <g
     id="g5517"
     ns0:preamble=""
     ns0:text="$P_{\\theta_f}$"
     transform="matrix(2,0,0,2,-240.76122,52.085209)">
    <defs
       id="defs5519">
      <g
         id="g5521">
        <symbol
           id="textext-5c6b32b8-0"
           overflow="visible"
           style="overflow:visible">
          <path
             id="path5524"
             d=""
             style="stroke:none"
             inkscape:connector-curvature="0" />
        </symbol>
        <symbol
           id="textext-5c6b32b8-1"
           overflow="visible"
           style="overflow:visible">
          <path
             id="path5527"
             d="m 3.015625,-3.15625 1.703125,0 c 1.40625,0 2.796875,-1.03125 2.796875,-2.140625 0,-0.78125 -0.65625,-1.515625 -1.96875,-1.515625 l -3.21875,0 c -0.1875,0 -0.296875,0 -0.296875,0.1875 0,0.125 0.078125,0.125 0.28125,0.125 0.125,0 0.3125,0.015625 0.421875,0.015625 0.171875,0.03125 0.21875,0.046875 0.21875,0.171875 0,0.03125 0,0.0625 -0.03125,0.1875 l -1.34375,5.34375 c -0.09375,0.390625 -0.109375,0.46875 -0.90625,0.46875 -0.15625,0 -0.265625,0 -0.265625,0.1875 C 0.40625,0 0.515625,0 0.546875,0 0.828125,0 1.53125,-0.03125 1.8125,-0.03125 c 0.21875,0 0.4375,0.015625 0.640625,0.015625 0.21875,0 0.4375,0.015625 0.640625,0.015625 0.078125,0 0.203125,0 0.203125,-0.203125 0,-0.109375 -0.09375,-0.109375 -0.28125,-0.109375 -0.359375,0 -0.640625,0 -0.640625,-0.171875 0,-0.0625 0.015625,-0.109375 0.03125,-0.171875 z M 3.734375,-6.125 C 3.828125,-6.46875 3.84375,-6.5 4.28125,-6.5 l 0.953125,0 c 0.828125,0 1.359375,0.265625 1.359375,0.953125 0,0.390625 -0.203125,1.25 -0.59375,1.609375 -0.5,0.453125 -1.09375,0.53125 -1.53125,0.53125 l -1.40625,0 z m 0,0"
             style="stroke:none"
             inkscape:connector-curvature="0" />
        </symbol>
        <symbol
           id="textext-5c6b32b8-2"
           overflow="visible"
           style="overflow:visible">
          <path
             id="path5530"
             d=""
             style="stroke:none"
             inkscape:connector-curvature="0" />
        </symbol>
        <symbol
           id="textext-5c6b32b8-3"
           overflow="visible"
           style="overflow:visible">
          <path
             id="path5533"
             d="m 3.5625,-3.390625 c 0,-0.734375 -0.28125,-1.515625 -0.96875,-1.515625 -1.046875,0 -2.15625,1.875 -2.15625,3.46875 0,0.828125 0.328125,1.5 0.96875,1.5 1.046875,0 2.15625,-1.890625 2.15625,-3.453125 z m -2.34375,0.84375 c 0.359375,-1.5 0.96875,-2.15625 1.375,-2.15625 0.4375,0 0.4375,0.765625 0.4375,0.890625 0,0.28125 -0.046875,0.6875 -0.1875,1.265625 z m 1.5625,0.25 C 2.578125,-1.53125 2.421875,-1.15625 2.203125,-0.8125 2,-0.453125 1.71875,-0.125 1.40625,-0.125 c -0.375,0 -0.4375,-0.53125 -0.4375,-0.90625 0,-0.453125 0.125,-1 0.1875,-1.265625 z m 0,0"
             style="stroke:none"
             inkscape:connector-curvature="0" />
        </symbol>
        <symbol
           id="textext-5c6b32b8-4"
           overflow="visible"
           style="overflow:visible">
          <path
             id="path5536"
             d=""
             style="stroke:none"
             inkscape:connector-curvature="0" />
        </symbol>
        <symbol
           id="textext-5c6b32b8-5"
           overflow="visible"
           style="overflow:visible">
          <path
             id="path5539"
             d="m 2.375,-1.921875 0.5625,0 c 0.09375,0 0.109375,0 0.125,-0.03125 0.03125,-0.015625 0.046875,-0.078125 0.046875,-0.109375 0,-0.078125 -0.078125,-0.078125 -0.15625,-0.078125 l -0.546875,0 c 0.0625,-0.375 0.171875,-1.015625 0.234375,-1.078125 0.078125,-0.078125 0.15625,-0.125 0.234375,-0.125 0.03125,0 0.140625,0 0.25,0.046875 C 2.921875,-3.203125 2.921875,-3.03125 2.921875,-3 c 0,0.125 0.09375,0.203125 0.21875,0.203125 0.125,0 0.3125,-0.109375 0.3125,-0.328125 0,-0.296875 -0.328125,-0.390625 -0.578125,-0.390625 -0.625,0 -0.75,0.609375 -0.796875,0.8125 -0.046875,0.21875 -0.015625,0.09375 -0.09375,0.5625 l -0.453125,0 c -0.09375,0 -0.1875,0 -0.1875,0.125 0,0.09375 0.078125,0.09375 0.171875,0.09375 l 0.421875,0 C 1.84375,-1.4375 1.640625,-0.046875 1.5,0.484375 1.46875,0.59375 1.34375,0.859375 1.15625,0.859375 1.125,0.859375 1.015625,0.84375 0.921875,0.796875 1.0625,0.75 1.125,0.625 1.125,0.515625 1.125,0.390625 1.03125,0.3125 0.90625,0.3125 c -0.125,0 -0.3125,0.109375 -0.3125,0.328125 0,0.296875 0.359375,0.375 0.5625,0.375 0.28125,0 0.5,-0.21875 0.625,-0.375 0.1875,-0.28125 0.3125,-0.9375 0.3125,-0.953125 z m 0,0"
             style="stroke:none"
             inkscape:connector-curvature="0" />
        </symbol>
      </g>
    </defs>
    <g
       id="textext-5c6b32b8-6">
      <g
         id="g5542"
         style="fill:#000000;fill-opacity:1">
        <use
           id="use5544"
           y="134.765"
           x="223.43201"
           xlink:href="#textext-5c6b32b8-1"
           width="923"
           height="363" />
      </g>
      <g
         id="g5546"
         style="fill:#000000;fill-opacity:1">
        <use
           id="use5548"
           y="136.259"
           x="229.828"
           xlink:href="#textext-5c6b32b8-3"
           width="923"
           height="363" />
      </g>
      <g
         id="g5550"
         style="fill:#000000;fill-opacity:1">
        <use
           id="use5552"
           y="137.31599"
           x="233.623"
           xlink:href="#textext-5c6b32b8-5"
           width="923"
           height="363" />
      </g>
    </g>
  </g>
  <g
     transform="matrix(2,0,0,2,-57.123779,-27.058632)"
     ns0:text="$N_s$"
     ns0:preamble=""
     id="g5821">
    <defs
       id="defs5823">
      <g
         id="g5825">
        <symbol
           style="overflow:visible"
           overflow="visible"
           id="textext-741646b6-0">
          <path
             inkscape:connector-curvature="0"
             style="stroke:none"
             d=""
             id="path5828" />
        </symbol>
        <symbol
           style="overflow:visible"
           overflow="visible"
           id="textext-741646b6-1">
          <path
             inkscape:connector-curvature="0"
             style="stroke:none"
             d="M 7.53125,-5.765625 C 7.640625,-6.15625 7.8125,-6.46875 8.609375,-6.5 c 0.046875,0 0.171875,-0.015625 0.171875,-0.203125 0,0 0,-0.109375 -0.125,-0.109375 -0.328125,0 -0.6875,0.03125 -1.015625,0.03125 -0.328125,0 -0.6875,-0.03125 -1.015625,-0.03125 -0.0625,0 -0.171875,0 -0.171875,0.203125 C 6.453125,-6.5 6.546875,-6.5 6.625,-6.5 c 0.578125,0.015625 0.6875,0.21875 0.6875,0.4375 0,0.03125 -0.03125,0.1875 -0.03125,0.203125 l -1.125,4.4375 L 3.953125,-6.625 C 3.875,-6.796875 3.875,-6.8125 3.640625,-6.8125 l -1.34375,0 c -0.1875,0 -0.28125,0 -0.28125,0.203125 0,0.109375 0.09375,0.109375 0.28125,0.109375 0.046875,0 0.671875,0 0.671875,0.09375 L 1.640625,-1.0625 c -0.109375,0.40625 -0.28125,0.71875 -1.078125,0.75 -0.0625,0 -0.171875,0.015625 -0.171875,0.203125 0,0.0625 0.046875,0.109375 0.125,0.109375 0.328125,0 0.671875,-0.03125 1,-0.03125 C 1.859375,-0.03125 2.21875,0 2.546875,0 2.59375,0 2.71875,0 2.71875,-0.203125 2.71875,-0.296875 2.625,-0.3125 2.515625,-0.3125 1.9375,-0.328125 1.859375,-0.546875 1.859375,-0.75 c 0,-0.0625 0.015625,-0.125 0.046875,-0.234375 l 1.3125,-5.25 C 3.265625,-6.1875 3.265625,-6.15625 3.3125,-6.0625 l 2.484375,5.875 C 5.859375,-0.015625 5.890625,0 5.984375,0 6.09375,0 6.09375,-0.03125 6.140625,-0.203125 z m 0,0"
             id="path5831" />
        </symbol>
        <symbol
           style="overflow:visible"
           overflow="visible"
           id="textext-741646b6-2">
          <path
             inkscape:connector-curvature="0"
             style="stroke:none"
             d=""
             id="path5834" />
        </symbol>
        <symbol
           style="overflow:visible"
           overflow="visible"
           id="textext-741646b6-3">
          <path
             inkscape:connector-curvature="0"
             style="stroke:none"
             d="m 3,-2.625 c -0.171875,0.046875 -0.296875,0.1875 -0.296875,0.328125 0,0.171875 0.140625,0.234375 0.234375,0.234375 0.078125,0 0.34375,-0.046875 0.34375,-0.40625 0,-0.453125 -0.5,-0.609375 -0.9375,-0.609375 -1.078125,0 -1.28125,0.8125 -1.28125,1.015625 0,0.265625 0.15625,0.4375 0.25,0.515625 0.171875,0.140625 0.296875,0.171875 0.78125,0.25 0.15625,0.03125 0.59375,0.109375 0.59375,0.453125 0,0.125 -0.078125,0.390625 -0.359375,0.5625 C 2.046875,-0.125 1.703125,-0.125 1.625,-0.125 1.34375,-0.125 0.953125,-0.1875 0.78125,-0.421875 1.015625,-0.453125 1.171875,-0.625 1.171875,-0.8125 c 0,-0.171875 -0.125,-0.265625 -0.265625,-0.265625 -0.203125,0 -0.40625,0.171875 -0.40625,0.46875 0,0.421875 0.4375,0.671875 1.109375,0.671875 1.296875,0 1.53125,-0.875 1.53125,-1.140625 0,-0.640625 -0.703125,-0.765625 -0.96875,-0.8125 -0.0625,-0.015625 -0.234375,-0.046875 -0.28125,-0.0625 -0.25,-0.046875 -0.375,-0.1875 -0.375,-0.34375 0,-0.15625 0.125,-0.34375 0.28125,-0.453125 0.1875,-0.109375 0.421875,-0.125 0.546875,-0.125 0.140625,0 0.5,0.015625 0.65625,0.25 z m 0,0"
             id="path5837" />
        </symbol>
      </g>
    </defs>
    <g
       id="textext-741646b6-4">
      <g
         style="fill:#000000;fill-opacity:1"
         id="g5840">
        <use
           height="363"
           width="923"
           xlink:href="#textext-741646b6-1"
           x="223.43201"
           y="134.765"
           id="use5842" />
      </g>
      <g
         style="fill:#000000;fill-opacity:1"
         id="g5844">
        <use
           height="363"
           width="923"
           xlink:href="#textext-741646b6-3"
           x="231.437"
           y="136.259"
           id="use5846" />
      </g>
    </g>
  </g>
  <g
     id="g6145"
     ns0:preamble=""
     ns0:text="$I$"
     transform="matrix(2,0,0,2,85.906641,-26.04911)">
    <defs
       id="defs6147">
      <g
         id="g6149">
        <symbol
           id="textext-c66ca585-0"
           overflow="visible"
           style="overflow:visible">
          <path
             id="path6152"
             d=""
             style="stroke:none"
             inkscape:connector-curvature="0" />
        </symbol>
        <symbol
           id="textext-c66ca585-1"
           overflow="visible"
           style="overflow:visible">
          <path
             id="path6155"
             d="M 3.734375,-6.046875 C 3.8125,-6.40625 3.84375,-6.5 4.640625,-6.5 c 0.234375,0 0.3125,0 0.3125,-0.1875 0,-0.125 -0.109375,-0.125 -0.140625,-0.125 -0.296875,0 -1.03125,0.03125 -1.328125,0.03125 -0.296875,0 -1.015625,-0.03125 -1.328125,-0.03125 -0.0625,0 -0.1875,0 -0.1875,0.203125 C 1.96875,-6.5 2.046875,-6.5 2.25,-6.5 c 0.40625,0 0.6875,0 0.6875,0.1875 0,0.046875 0,0.078125 -0.03125,0.15625 l -1.34375,5.375 c -0.09375,0.375 -0.109375,0.46875 -0.90625,0.46875 -0.234375,0 -0.3125,0 -0.3125,0.203125 C 0.34375,0 0.453125,0 0.484375,0 0.78125,0 1.5,-0.03125 1.796875,-0.03125 2.09375,-0.03125 2.828125,0 3.125,0 c 0.078125,0 0.203125,0 0.203125,-0.1875 0,-0.125 -0.078125,-0.125 -0.296875,-0.125 -0.1875,0 -0.234375,0 -0.421875,-0.015625 -0.21875,-0.015625 -0.25,-0.0625 -0.25,-0.171875 0,-0.078125 0.015625,-0.15625 0.03125,-0.234375 z m 0,0"
             style="stroke:none"
             inkscape:connector-curvature="0" />
        </symbol>
      </g>
    </defs>
    <g
       id="textext-c66ca585-2">
      <g
         id="g6158"
         style="fill:#000000;fill-opacity:1">
        <use
           id="use6160"
           y="134.765"
           x="223.43201"
           xlink:href="#textext-c66ca585-1"
           width="923"
           height="363" />
      </g>
    </g>
  </g>
  <g
     transform="matrix(2,0,0,2,302.61307,-24.386401)"
     ns0:text="$A$"
     ns0:preamble=""
     id="g6477">
    <defs
       id="defs6479">
      <g
         id="g6481">
        <symbol
           style="overflow:visible"
           overflow="visible"
           id="textext-099a8428-0">
          <path
             inkscape:connector-curvature="0"
             style="stroke:none"
             d=""
             id="path6484" />
        </symbol>
        <symbol
           style="overflow:visible"
           overflow="visible"
           id="textext-099a8428-1">
          <path
             inkscape:connector-curvature="0"
             style="stroke:none"
             d="M 1.78125,-1.140625 C 1.390625,-0.484375 1,-0.34375 0.5625,-0.3125 0.4375,-0.296875 0.34375,-0.296875 0.34375,-0.109375 0.34375,-0.046875 0.40625,0 0.484375,0 0.75,0 1.0625,-0.03125 1.328125,-0.03125 c 0.34375,0 0.6875,0.03125 1,0.03125 0.0625,0 0.1875,0 0.1875,-0.1875 0,-0.109375 -0.078125,-0.125 -0.15625,-0.125 -0.21875,-0.015625 -0.46875,-0.09375 -0.46875,-0.34375 0,-0.125 0.0625,-0.234375 0.140625,-0.375 l 0.765625,-1.265625 2.5,0 c 0.015625,0.203125 0.15625,1.5625 0.15625,1.65625 0,0.296875 -0.515625,0.328125 -0.71875,0.328125 C 4.59375,-0.3125 4.5,-0.3125 4.5,-0.109375 4.5,0 4.609375,0 4.640625,0 5.046875,0 5.46875,-0.03125 5.875,-0.03125 6.125,-0.03125 6.765625,0 7.015625,0 7.0625,0 7.1875,0 7.1875,-0.203125 7.1875,-0.3125 7.09375,-0.3125 6.953125,-0.3125 6.34375,-0.3125 6.34375,-0.375 6.3125,-0.671875 l -0.609375,-6.21875 c -0.015625,-0.203125 -0.015625,-0.25 -0.1875,-0.25 -0.15625,0 -0.203125,0.078125 -0.265625,0.171875 z M 2.984375,-2.609375 4.9375,-5.90625 5.265625,-2.609375 z m 0,0"
             id="path6487" />
        </symbol>
      </g>
    </defs>
    <g
       id="textext-099a8428-2">
      <g
         style="fill:#000000;fill-opacity:1"
         id="g6490">
        <use
           height="363"
           width="923"
           xlink:href="#textext-099a8428-1"
           x="223.43201"
           y="134.765"
           id="use6492" />
      </g>
    </g>
  </g>
  <g
     id="g6827"
     ns0:preamble=""
     ns0:text="$G$"
     transform="matrix(2,0,0,2,526.52457,-25.494874)">
    <defs
       id="defs6829">
      <g
         id="g6831">
        <symbol
           id="textext-4d41358b-0"
           overflow="visible"
           style="overflow:visible">
          <path
             id="path6834"
             d=""
             style="stroke:none"
             inkscape:connector-curvature="0" />
        </symbol>
        <symbol
           id="textext-4d41358b-1"
           overflow="visible"
           style="overflow:visible">
          <path
             id="path6837"
             d="m 7.578125,-6.921875 c 0,-0.03125 -0.015625,-0.109375 -0.109375,-0.109375 -0.03125,0 -0.046875,0.015625 -0.15625,0.125 L 6.625,-6.140625 C 6.53125,-6.28125 6.078125,-7.03125 4.96875,-7.03125 2.734375,-7.03125 0.5,-4.828125 0.5,-2.515625 c 0,1.59375 1.109375,2.734375 2.71875,2.734375 0.4375,0 0.890625,-0.09375 1.25,-0.234375 0.5,-0.203125 0.6875,-0.40625 0.859375,-0.609375 0.09375,0.25 0.359375,0.609375 0.453125,0.609375 0.046875,0 0.078125,-0.03125 0.078125,-0.03125 C 5.875,-0.0625 5.96875,-0.453125 6.015625,-0.65625 l 0.1875,-0.765625 C 6.25,-1.59375 6.296875,-1.765625 6.34375,-1.9375 c 0.109375,-0.4375 0.109375,-0.46875 0.6875,-0.46875 0.046875,0 0.15625,-0.015625 0.15625,-0.203125 0,-0.078125 -0.046875,-0.109375 -0.125,-0.109375 -0.234375,0 -0.828125,0.03125 -1.046875,0.03125 -0.3125,0 -1.09375,-0.03125 -1.40625,-0.03125 -0.078125,0 -0.203125,0 -0.203125,0.203125 0,0.109375 0.078125,0.109375 0.296875,0.109375 0.015625,0 0.296875,0 0.53125,0.015625 0.265625,0.03125 0.3125,0.0625 0.3125,0.1875 0,0.09375 -0.109375,0.53125 -0.21875,0.90625 -0.28125,1.09375 -1.5625,1.203125 -1.921875,1.203125 -0.953125,0 -2,-0.5625 -2,-2.09375 0,-0.3125 0.09375,-1.953125 1.140625,-3.25 0.546875,-0.671875 1.515625,-1.28125 2.5,-1.28125 1.015625,0 1.609375,0.765625 1.609375,1.921875 0,0.40625 -0.03125,0.40625 -0.03125,0.515625 0,0.09375 0.109375,0.09375 0.140625,0.09375 0.125,0 0.125,-0.015625 0.1875,-0.203125 z m 0,0"
             style="stroke:none"
             inkscape:connector-curvature="0" />
        </symbol>
      </g>
    </defs>
    <g
       id="textext-4d41358b-2">
      <g
         id="g6840"
         style="fill:#000000;fill-opacity:1">
        <use
           id="use6842"
           y="134.765"
           x="223.43201"
           xlink:href="#textext-4d41358b-1"
           width="923"
           height="363" />
      </g>
    </g>
  </g>
</svg>
